<?xml version="1.0" encoding="UTF-8"?>
<svg width="124px" height="43px" viewBox="0 0 124 43" version="1.1" xmlns="http://www.w3.org/2000/svg" xmlns:xlink="http://www.w3.org/1999/xlink">
    <!-- Generator: Sketch 57.1 (83088) - https://sketch.com -->
    <title>plastic</title>
    <desc>Created with Sketch.</desc>
    <defs>
        <path d="M0.3,42.2059095 L3.07931671,41.8088643 L3.07931671,12.4275162 L0.3,12.0304709 L0.3,11.2363804 L7.04976916,11.2363804 L7.04976916,15.4053555 C7.71151454,13.9759855 8.60485741,12.8576525 9.72982456,12.0503232 C10.8547917,11.2429938 12.1981147,10.8393352 13.7598338,10.8393352 C15.6391907,10.8393352 17.2935293,11.2826979 18.7228994,12.1694367 C20.1522694,13.0561756 21.2639849,14.3002382 22.0580794,15.901662 C22.8521739,17.5030859 23.2492151,19.3757972 23.2492151,21.5198523 C23.2492151,23.6639073 22.8521739,25.5366186 22.0580794,27.1380425 C21.2639849,28.7394663 20.1522694,29.9769116 18.7228994,30.8504155 C17.2935293,31.7239194 15.6391907,32.1606648 13.7598338,32.1606648 C12.1981147,32.1606648 10.8547917,31.7570062 9.72982456,30.9496768 C8.60485741,30.1423475 7.71151454,29.0372492 7.04976916,27.634349 L7.04976916,41.8088643 L10.7819945,42.2059095 L10.7819945,43 L0.3,43 L0.3,42.2059095 Z M13.3627886,31.1680517 C17.0420929,31.1680517 18.8817175,28.6137528 18.8817175,23.5050785 L18.8817175,19.534626 C18.8817175,14.3994819 17.0420929,11.8319483 13.3627886,11.8319483 C12.1981167,11.8319483 11.1393399,12.1694334 10.1864266,12.8444137 C9.23351324,13.519394 8.47913482,14.4259715 7.9232687,15.5641736 C7.36740258,16.7023757 7.07623898,17.9332036 7.04976916,19.2566944 L7.04976916,23.5050785 C7.04976916,24.8550391 7.3210807,26.1189538 7.86371191,27.2968606 C8.40634313,28.4747674 9.16072155,29.4144317 10.1268698,30.1158818 C11.0930181,30.8173319 12.1716469,31.1680517 13.3627886,31.1680517 Z M25.7506002,31.7636196 L25.7506002,30.9695291 L28.7284395,30.5724838 L28.7284395,1.19113573 L25.7506002,0.794090489 L25.7506002,0 L32.698892,0 L32.698892,30.5724838 L35.4782087,30.9695291 L35.4782087,31.7636196 L25.7506002,31.7636196 Z M43.9352724,32.1606648 C42.2412042,32.1606648 40.8515598,31.7173021 39.7662973,30.8305633 C38.6810349,29.9438244 38.1384118,28.6269709 38.1384118,26.8799631 C38.1384118,24.3918004 39.1839538,22.6249668 41.2750693,21.579409 C43.3661847,20.5338513 45.7881364,20.0110803 48.5409972,20.0110803 L51.2012004,20.0110803 L51.2012004,16.9538319 C51.2012004,15.5774016 51.0490012,14.5120075 50.7445983,13.7576177 C50.4401955,13.003228 49.9703633,12.4738396 49.3350877,12.1694367 C48.6998122,11.8650339 47.8395561,11.7128347 46.7542936,11.7128347 C45.5102123,11.7128347 44.5837827,11.9576768 43.9749769,12.4473684 C43.3661712,12.93706 43.0617729,13.5921781 43.0617729,14.4127424 C43.0617729,15.180367 43.4323447,15.683286 44.1734995,15.9215143 C44.1734995,16.5832597 43.9220401,17.1655869 43.4191136,17.6685134 C42.9161871,18.1714399 42.3206252,18.4228994 41.63241,18.4228994 C40.8912551,18.4228994 40.2956932,18.2177614 39.8457064,17.8074792 C39.3957195,17.3971971 39.1707295,16.7685484 39.1707295,15.9215143 C39.1707295,14.386265 39.9383426,13.1554371 41.4735919,12.2289935 C43.0088412,11.30255 44.927874,10.8393352 47.2307479,10.8393352 C52.524711,10.8393352 55.1716528,13.1421746 55.1716528,17.7479224 L55.1716528,29.1034164 C55.1716528,29.6857524 55.2973826,30.1291151 55.5488458,30.433518 C55.800309,30.7379209 56.1642635,30.89012 56.6407202,30.89012 C57.0907071,30.89012 57.4480442,30.7379209 57.7127424,30.433518 C57.9774405,30.1291151 58.1097876,29.7122218 58.1097876,29.1828255 L58.9435826,29.1828255 C58.9435826,30.109269 58.6458017,30.837178 58.0502308,31.3665743 C57.45466,31.8959706 56.6274907,32.1606648 55.5686981,32.1606648 C54.3510866,32.1606648 53.3253966,31.809945 52.4915974,31.1084949 C51.6577982,30.4070448 51.2276702,29.3151813 51.2012004,27.8328717 C50.5659248,29.1828322 49.5931737,30.241609 48.2829178,31.0092336 C46.972662,31.7768583 45.5234613,32.1606648 43.9352724,32.1606648 Z M46.1190212,30.4136657 C46.8337063,30.4136657 47.5682326,30.2019104 48.3226223,29.7783934 C49.0770121,29.3548763 49.7188955,28.7394623 50.2482918,27.932133 C50.7776881,27.1248036 51.0953211,26.1520525 51.2012004,25.0138504 L51.2012004,20.8845799 L48.5409972,20.8845799 C46.3704724,20.8845799 44.7492205,21.3676468 43.677193,22.333795 C42.6051655,23.2999433 42.0691597,24.656501 42.0691597,26.4035088 C42.0691597,27.8593486 42.4132622,28.8916559 43.1014774,29.5004617 C43.7896926,30.1092674 44.7955305,30.4136657 46.1190212,30.4136657 Z M68.3535549,32.1606648 C66.1830301,32.1606648 64.3698749,31.69745 62.9140351,30.7710065 C61.4581952,29.8445629 60.7302862,28.6402044 60.7302862,27.1578947 C60.7302862,26.3902701 60.9354242,25.7880908 61.3457064,25.3513389 C61.7559885,24.9145869 62.3052289,24.6962142 62.9934441,24.6962142 C63.5228404,24.6962142 63.9728206,24.8285613 64.343398,25.0932595 C64.7139754,25.3579576 64.9786696,25.7285295 65.1374885,26.2049861 C64.5551525,26.8402617 64.2639889,27.5152319 64.2639889,28.2299169 C64.2639889,29.0504812 64.6345608,29.7651555 65.3757156,30.3739612 C66.1168704,30.982767 67.1094736,31.2871653 68.3535549,31.2871653 C70.0211533,31.2871653 71.3843283,30.9099761 72.443121,30.1555863 C73.5019136,29.4011966 74.0313019,28.3887413 74.0313019,27.1181902 C74.0313019,26.3770354 73.8063119,25.8211776 73.356325,25.4506002 C72.9063382,25.0800228 72.0328474,24.6565121 70.7358264,24.1800554 L64.7404432,21.9963066 C62.3846296,21.1492725 61.2067405,19.5743421 61.2067405,17.2714681 C61.2067405,15.3921113 61.8552413,13.8502676 63.1522622,12.645891 C64.4492832,11.4415144 66.2359689,10.8393352 68.512373,10.8393352 C70.3917299,10.8393352 71.9997471,11.2694632 73.3364728,12.1297322 C74.6731984,12.9900012 75.3415512,14.2142118 75.3415512,15.8024007 C75.3415512,16.4376763 75.1695,16.9472126 74.8253924,17.3310249 C74.4812848,17.7148373 74.0313047,17.9067405 73.4754386,17.9067405 C72.9195725,17.9067405 72.462975,17.7545414 72.1056325,17.4501385 C71.7482918,17.1457356 71.5696214,16.7288423 71.5696214,16.199446 C71.913729,15.9347478 72.1519538,15.6502016 72.2843029,15.3457987 C72.4166519,15.0413958 72.4828255,14.6774413 72.4828255,14.2539243 C72.4828255,13.5127695 72.1585751,12.9039728 71.5100646,12.4275162 C70.8615542,11.9510595 69.8623336,11.7128347 68.512373,11.7128347 C67.3477012,11.7128347 66.3484806,11.8915033 65.5146814,12.2488458 C64.6808823,12.6061883 64.0522336,13.0760205 63.6287165,13.6583564 C63.2051995,14.2406924 62.9934441,14.8362543 62.9934441,15.44506 C62.9934441,16.0803356 63.2250515,16.5832545 63.6882733,16.9538319 C64.1514951,17.3244094 65.0051338,17.7346853 66.2492151,18.1846722 L71.8078486,20.1698984 C73.1048695,20.6463551 74.084238,21.3080906 74.7459834,22.1551247 C75.4077288,23.0021587 75.7385965,24.1006396 75.7385965,25.4506002 C75.7385965,27.3828967 75.1297999,28.9842965 73.9121884,30.2548476 C72.6945769,31.5253988 70.8417176,32.1606648 68.3535549,32.1606648 Z M87.0146814,32.1606648 C85.2676736,32.1606648 83.8714118,31.7239194 82.8258541,30.8504155 C81.7802964,29.9769116 81.2575254,28.5872671 81.2575254,26.6814404 L81.2575254,12.3878116 L78.4385042,11.9907664 L78.4385042,11.1966759 L81.2575254,11.1966759 L81.2575254,7.90120037 L85.2279778,6.90858726 L85.2279778,11.1966759 L90.389566,11.1966759 L90.389566,11.9907664 L85.2279778,12.3878116 L85.2279778,26.6020314 C85.2279778,29.4078318 86.2338157,30.810711 88.2455217,30.810711 C88.6690387,30.810711 89.0726974,30.7445374 89.4565097,30.6121884 C89.840322,30.4798393 90.1447203,30.3474922 90.3697138,30.2151431 C90.5947072,30.082794 90.7336716,29.9901511 90.7866113,29.9372114 L91.3027701,30.5724838 C90.1116284,31.6312765 88.6822798,32.1606648 87.0146814,32.1606648 Z M96.821699,6.59095106 C96.0805442,6.59095106 95.4452781,6.33287423 94.9158818,5.81671283 C94.3864855,5.30055144 94.1217913,4.67190275 94.1217913,3.93074792 C94.1217913,3.18959309 94.3798681,2.56756176 94.8960295,2.06463527 C95.4121909,1.56170878 96.0540743,1.31024931 96.821699,1.31024931 C97.536384,1.31024931 98.1451806,1.56170878 98.6481071,2.06463527 C99.1510336,2.56756176 99.4024931,3.18959309 99.4024931,3.93074792 C99.4024931,4.67190275 99.1510336,5.30055144 98.6481071,5.81671283 C98.1451806,6.33287423 97.536384,6.59095106 96.821699,6.59095106 Z M92.6130194,31.7636196 L92.6130194,30.9695291 L95.3923361,30.5724838 L95.3923361,12.4275162 L92.6130194,12.0304709 L92.6130194,11.2363804 L99.3627886,11.2363804 L99.3627886,30.5724838 L102.142105,30.9695291 L102.142105,31.7636196 L92.6130194,31.7636196 Z M114.966667,32.1606648 C113.06084,32.1606648 111.327093,31.7173021 109.765374,30.8305633 C108.203655,29.9438244 106.96621,28.6865271 106.053001,27.0586334 C105.139792,25.4307398 104.683195,23.5712631 104.683195,21.4801477 C104.683195,19.2831531 105.166262,17.3773549 106.13241,15.7626962 C107.098558,14.1480375 108.362473,12.9238269 109.924192,12.0900277 C111.485911,11.2562285 113.166719,10.8393352 114.966667,10.8393352 C116.475446,10.8393352 117.851856,11.097412 119.095937,11.6135734 C120.340019,12.1297348 121.326004,12.8510265 122.053924,13.77747 C122.781844,14.7039135 123.145799,15.7494555 123.145799,16.9141274 C123.145799,17.7876313 122.920809,18.4559841 122.470822,18.9192059 C122.020835,19.3824277 121.425273,19.6140351 120.684118,19.6140351 C119.969433,19.6140351 119.373871,19.3758103 118.897415,18.8993536 C118.420958,18.422897 118.182733,17.8273351 118.182733,17.11265 C118.579778,16.8479519 118.857709,16.5567883 119.016528,16.2391505 C119.175346,15.9215127 119.254755,15.5244714 119.254755,15.0480148 C119.254755,14.0686316 118.864331,13.2679317 118.083472,12.645891 C117.302612,12.0238504 116.263688,11.7128347 114.966667,11.7128347 C113.06084,11.7128347 111.598405,12.3944222 110.579317,13.7576177 C109.560229,15.1208132 109.050693,17.0332287 109.050693,19.4949215 L109.050693,23.465374 C109.050693,25.8211875 109.546994,27.7137509 110.539612,29.143121 C111.53223,30.572491 113.0079,31.2871653 114.966667,31.2871653 C116.766614,31.2871653 118.334927,30.777629 119.671653,29.7585411 C121.008378,28.7394532 121.835548,27.3961302 122.153186,25.7285319 L123.06639,25.7285319 C122.695812,27.6872982 121.776,29.2489939 120.306925,30.4136657 C118.83785,31.5783376 117.057782,32.1606648 114.966667,32.1606648 Z" id="path-1"></path>
    </defs>
    <g id="Page-1" stroke="none" stroke-width="1" fill="none" fill-rule="evenodd">
        <g id="plastic" fill-rule="nonzero" fill="#FFFFFF">
            <use xlink:href="#path-1"></use>
            <use xlink:href="#path-1"></use>
        </g>
    </g>
</svg>